<svg width="39" height="40" viewBox="0 0 39 40" fill="none" xmlns="http://www.w3.org/2000/svg">
<path d="M27.625 29.75C28.487 29.75 29.3136 30.0924 29.9231 30.7019C30.5326 31.3114 30.875 32.1381 30.875 33C30.875 33.862 30.5326 34.6886 29.9231 35.2981C29.3136 35.9076 28.487 36.25 27.625 36.25C26.7631 36.25 25.9364 35.9076 25.3269 35.2981C24.7174 34.6886 24.375 33.862 24.375 33C24.375 31.1963 25.8213 29.75 27.625 29.75ZM1.625 3.75H6.93875L8.46625 7H32.5C32.931 7 33.3443 7.17121 33.6491 7.47595C33.9538 7.7807 34.125 8.19403 34.125 8.625C34.125 8.90125 34.0438 9.1775 33.93 9.4375L28.1125 19.9513C27.56 20.9425 26.4875 21.625 25.2688 21.625H13.1625L11.7 24.2738L11.6513 24.4688C11.6513 24.5765 11.6941 24.6798 11.7702 24.756C11.8464 24.8322 11.9498 24.875 12.0575 24.875H30.875V28.125H11.375C10.5131 28.125 9.6864 27.7826 9.07691 27.1731C8.46741 26.5636 8.125 25.737 8.125 24.875C8.125 24.3063 8.27125 23.77 8.515 23.315L10.725 19.3338L4.875 7H1.625V3.75ZM11.375 29.75C12.237 29.75 13.0636 30.0924 13.6731 30.7019C14.2826 31.3114 14.625 32.1381 14.625 33C14.625 33.862 14.2826 34.6886 13.6731 35.2981C13.0636 35.9076 12.237 36.25 11.375 36.25C10.5131 36.25 9.6864 35.9076 9.07691 35.2981C8.46741 34.6886 8.125 33.862 8.125 33C8.125 31.1963 9.57125 29.75 11.375 29.75ZM26 18.375L30.5175 10.25H9.9775L13.8125 18.375H26Z" fill="black"/>
</svg>
