<svg width="39" height="40" viewBox="0 0 39 40" fill="none" xmlns="http://www.w3.org/2000/svg">
<path fill-rule="evenodd" clip-rule="evenodd" d="M5.82902 7.55578C7.47813 5.79766 9.7145 4.81 12.0464 4.81C14.3782 4.81 16.6146 5.79766 18.2637 7.55578C18.5862 7.8984 19.0012 8.32479 19.5089 8.83495C20.0154 8.32479 20.43 7.8984 20.7523 7.55578C22.3946 5.81271 24.6155 4.83122 26.9325 4.82461C29.2494 4.81799 31.4753 5.78678 33.1262 7.52044C34.7772 9.25411 35.7198 11.6125 35.7493 14.0832C35.7788 16.5539 34.8929 18.9372 33.2839 20.7152L20.7507 34.0809C20.4208 34.4325 19.9735 34.63 19.5072 34.63C19.0408 34.63 18.5935 34.4325 18.2637 34.0809L5.73052 20.717C4.12305 18.949 3.23217 16.5778 3.25027 14.1153C3.26837 11.6528 4.19576 9.29666 5.82902 7.55578Z" fill="black"/>
</svg>
