<svg width="39" height="40" viewBox="0 0 39 40" fill="none" xmlns="http://www.w3.org/2000/svg">
<path d="M19.5 34.625L17.1438 32.5125C14.4083 30.0479 12.1469 27.9219 10.3594 26.1344C8.57188 24.3469 7.15 22.7419 6.09375 21.3195C5.0375 19.8971 4.29975 18.5906 3.8805 17.4C3.46125 16.2094 3.25108 14.9907 3.25 13.7437C3.25 11.1979 4.10313 9.07187 5.80938 7.36562C7.51563 5.65937 9.64167 4.80624 12.1875 4.80624C13.5958 4.80624 14.9365 5.10416 16.2094 5.69999C17.4823 6.29583 18.5792 7.13541 19.5 8.21874C20.4208 7.13541 21.5177 6.29583 22.7906 5.69999C24.0635 5.10416 25.4042 4.80624 26.8125 4.80624C29.3583 4.80624 31.4844 5.65937 33.1906 7.36562C34.8969 9.07187 35.75 11.1979 35.75 13.7437C35.75 14.9896 35.5404 16.2083 35.1211 17.4C34.7019 18.5917 33.9636 19.8982 32.9063 21.3195C31.8489 22.7408 30.4271 24.3458 28.6406 26.1344C26.8542 27.9229 24.5928 30.049 21.8563 32.5125L19.5 34.625ZM19.5 30.2375C22.1 27.9083 24.2396 25.9112 25.9188 24.2461C27.5979 22.581 28.925 21.1321 29.9 19.8992C30.875 18.6664 31.5521 17.569 31.9313 16.607C32.3104 15.645 32.5 14.6906 32.5 13.7437C32.5 12.1187 31.9583 10.7646 30.875 9.68124C29.7917 8.59791 28.4375 8.05624 26.8125 8.05624C25.5396 8.05624 24.3615 8.41483 23.2781 9.13199C22.1948 9.84916 21.45 10.7635 21.0438 11.875H17.9563C17.55 10.7646 16.8052 9.85078 15.7219 9.13362C14.6385 8.41645 13.4604 8.05733 12.1875 8.05624C10.5625 8.05624 9.20834 8.59791 8.125 9.68124C7.04167 10.7646 6.5 12.1187 6.5 13.7437C6.5 14.6917 6.68958 15.6466 7.06875 16.6086C7.44792 17.5706 8.125 18.6675 9.1 19.8992C10.075 21.131 11.4021 22.5799 13.0813 24.2461C14.7604 25.9123 16.9 27.9094 19.5 30.2375Z" fill="black"/>
</svg>
