<svg width="47" height="48" viewBox="0 0 47 48" fill="none" xmlns="http://www.w3.org/2000/svg">
<g clip-path="url(#clip0_506_1004)">
<path d="M15.4708 39.6667C19.2085 41.584 23.5079 42.1033 27.5946 41.1311C31.6812 40.1589 35.2862 37.7589 37.76 34.3639C40.2339 30.9687 41.4137 26.8019 41.087 22.6138C40.7603 18.4258 38.9485 14.4922 35.9781 11.5219C33.0077 8.5515 29.0742 6.73973 24.8862 6.413C20.6981 6.08629 16.5312 7.26612 13.1361 9.73989C9.74104 12.2136 7.34115 15.8186 6.3689 19.9053C5.39664 23.9919 5.91597 28.2915 7.8333 32.0292L3.91663 43.5833L15.4708 39.6667Z" fill="white" stroke="black" stroke-width="2" stroke-linecap="round" stroke-linejoin="round"/>
<path d="M19.8206 14.5329C19.7266 14.6403 19.646 14.7343 19.5923 14.8149C19.0686 15.681 18.0748 16.8896 17.0341 17.655L16.3627 17.0373C17.249 16.4196 18.001 15.5064 18.3501 14.8887C17.7593 14.8887 15.3153 14.8887 14.805 14.8887C14.5297 14.8887 14.1671 14.9223 14.0261 14.9424V13.9957C14.2074 14.0293 14.57 14.0629 14.805 14.0629C15.228 14.0629 17.8063 14.0629 18.5247 14.0629C18.7866 14.0629 19.0081 14.036 19.1558 13.989L19.8206 14.5329ZM16.2821 17.7557C15.886 17.3596 15.2011 16.7486 14.805 16.4666L15.51 15.8892C15.8726 16.1644 16.544 16.7083 17.0543 17.1984C17.4974 17.6282 18.0278 18.1854 18.3501 18.5749L17.5578 19.206C17.2826 18.83 16.7186 18.1989 16.2821 17.7557ZM21.761 13.66C22.2243 13.9756 23.0971 14.6739 23.4933 15.0834L22.8084 15.7817C22.4593 15.4057 21.6133 14.6739 21.1231 14.3382L21.761 13.66ZM20.915 18.1317C21.9691 17.984 22.8353 17.6416 23.4866 17.2589C24.6347 16.574 25.5076 15.5534 25.9373 14.647L26.4543 15.587C25.9507 16.5002 25.0577 17.4267 23.9767 18.078C23.2918 18.4876 22.4257 18.8569 21.4857 19.018L20.915 18.1317ZM32.0137 13.3914C32.1816 13.6399 32.4233 14.0629 32.5508 14.3113L32.0137 14.5396C31.8727 14.2643 31.6646 13.8682 31.4833 13.6063L32.0137 13.3914ZM32.8127 13.0893C32.9873 13.3377 33.2357 13.7674 33.3498 14.0024L32.8194 14.2307C32.6784 13.9487 32.4636 13.5593 32.2823 13.3042L32.8127 13.0893ZM30.2948 13.4519C30.2747 13.6063 30.2546 13.8883 30.2478 14.0494C30.174 16.7217 29.5428 18.078 28.059 19.1389L27.2734 18.5077C27.5554 18.3533 27.8911 18.125 28.1597 17.8497C29.0393 16.9769 29.3481 15.8354 29.3548 14.0696C29.3548 13.9152 29.328 13.613 29.3011 13.4519H30.2948ZM32.571 14.8887C32.5508 14.9962 32.5307 15.1707 32.5307 15.2446C32.5038 15.9697 32.4166 17.843 32.1278 18.5279C31.9868 18.8703 31.725 19.0449 31.2684 19.0449C30.879 19.0449 30.4828 19.018 30.1538 18.9912L30.0464 18.0914C30.3821 18.1519 30.7246 18.1854 30.9931 18.1854C31.208 18.1854 31.302 18.1116 31.3691 17.9504C31.5638 17.5274 31.6578 16.1846 31.6578 15.4594H28.3813C28.153 15.4594 27.777 15.4594 27.495 15.4863V14.6067C27.777 14.6336 28.1194 14.6537 28.3746 14.6537H31.4833C31.6578 14.6537 31.8324 14.6336 31.9936 14.6067L32.571 14.8887Z" fill="black"/>
<path d="M12.1991 22.6938H13.345L14.5553 25.6465H14.6068L15.8171 22.6938H16.9629V27.0886H16.0618V24.2281H16.0252L14.888 27.0671H14.2741L13.1369 24.2174H13.1004V27.0886H12.1991V22.6938ZM18.486 27.0886H17.4903L19.0074 22.6938H20.2049L21.7199 27.0886H20.7242L19.6234 23.698H19.589L18.486 27.0886ZM18.4238 25.3611H20.7757V26.0864H18.4238V25.3611ZM25.9248 22.6938V27.0886H25.1223L23.2102 24.3225H23.1781V27.0886H22.2488V22.6938H23.0644L24.9613 25.4577H24.9999V22.6938H25.9248ZM29.6066 24.1144C29.5765 24.0099 29.5344 23.9177 29.48 23.8375C29.4256 23.756 29.3591 23.6874 29.2804 23.6315C29.2032 23.5743 29.1145 23.5307 29.0144 23.5006C28.9157 23.4706 28.8063 23.4556 28.6861 23.4556C28.4614 23.4556 28.264 23.5113 28.0938 23.6229C27.925 23.7345 27.7934 23.8969 27.699 24.1101C27.6046 24.3217 27.5573 24.5808 27.5573 24.8868C27.5573 25.193 27.6037 25.4534 27.6968 25.668C27.7897 25.8825 27.9213 26.0464 28.0916 26.1594C28.2619 26.271 28.4629 26.3268 28.6947 26.3268C28.905 26.3268 29.0845 26.2896 29.2333 26.2152C29.3834 26.1393 29.4978 26.0328 29.5765 25.8954C29.6567 25.7581 29.6967 25.5957 29.6967 25.4084L29.8857 25.4362H28.7526V24.7367H30.5916V25.2903C30.5916 25.6766 30.5101 26.0085 30.3469 26.2859C30.1839 26.5622 29.9593 26.7753 29.6732 26.9255C29.3871 27.0742 29.0594 27.1486 28.6904 27.1486C28.2783 27.1486 27.9164 27.0578 27.6046 26.8761C27.2926 26.693 27.0494 26.4334 26.8748 26.0971C26.7018 25.7595 26.6153 25.359 26.6153 24.8954C26.6153 24.5393 26.6667 24.2217 26.7697 23.9427C26.8742 23.6623 27.0201 23.4248 27.2075 23.2303C27.3949 23.0357 27.6131 22.8876 27.862 22.7861C28.1109 22.6844 28.3806 22.6336 28.6711 22.6336C28.92 22.6336 29.1517 22.6702 29.3662 22.7431C29.5808 22.8147 29.7711 22.9162 29.9371 23.0478C30.1046 23.1795 30.2411 23.3361 30.3469 23.5178C30.4529 23.698 30.5208 23.8969 30.5508 24.1144H29.6066ZM31.9114 27.0886H30.9156L32.4328 22.6938H33.6302L35.1452 27.0886H34.1495L33.0486 23.698H33.0144L31.9114 27.0886ZM31.8491 25.3611H34.2011V26.0864H31.8491V25.3611Z" fill="black"/>
<path d="M13.8104 30.8852H14.9564L16.1667 33.8379H16.2182L17.4285 30.8852H18.5743V35.28H17.6732V32.4196H17.6366L16.4994 35.2585H15.8855L14.7483 32.4088H14.7118V35.28H13.8104V30.8852ZM20.0974 35.28H19.1017L20.6188 30.8852H21.8163L23.3313 35.28H22.3356L21.2348 31.8894H21.2004L20.0974 35.28ZM20.0352 33.5525H22.3871V34.2778H20.0352V33.5525ZM27.5362 30.8852V35.28H26.7337L24.8216 32.514H24.7895V35.28H23.8602V30.8852H24.6757L26.5727 33.6491H26.6113V30.8852H27.5362ZM29.2331 30.8852V35.28H28.3039V30.8852H29.2331ZM30.755 35.28H29.7594L31.2766 30.8852H32.474L33.9889 35.28H32.9933L31.8924 31.8894H31.858L30.755 35.28ZM30.6928 33.5525H33.0447V34.2778H30.6928V33.5525Z" fill="black"/>
</g>
<defs>
<clipPath id="clip0_506_1004">
<rect width="47" height="47" fill="white" transform="translate(0 0.5)"/>
</clipPath>
</defs>
</svg>
