<svg width="39" height="40" viewBox="0 0 39 40" fill="none" xmlns="http://www.w3.org/2000/svg">
<path d="M27.61 29.75C25.8063 29.75 24.36 31.1963 24.36 33C24.36 33.862 24.7024 34.6886 25.3119 35.2981C25.9214 35.9076 26.748 36.25 27.61 36.25C28.472 36.25 29.2986 35.9076 29.9081 35.2981C30.5176 34.6886 30.86 33.862 30.86 33C30.86 32.138 30.5176 31.3114 29.9081 30.7019C29.2986 30.0924 28.472 29.75 27.61 29.75ZM1.60999 3.75V7H4.85999L10.71 19.3337L8.49999 23.315C8.25619 23.77 8.10999 24.3062 8.10999 24.875C8.10999 25.737 8.45238 26.5636 9.06188 27.1731C9.67138 27.7826 10.498 28.125 11.36 28.125H30.86V24.875H12.0425C11.9348 24.875 11.8314 24.8322 11.7552 24.756C11.6791 24.6798 11.6362 24.5765 11.6362 24.4688C11.6362 24.3875 11.6525 24.3225 11.685 24.2738L13.1475 21.625H25.2538C26.4725 21.625 27.545 20.9425 28.0975 19.9513L33.915 9.4375C34.0288 9.1775 34.11 8.90125 34.11 8.625C34.11 8.19402 33.9388 7.7807 33.6341 7.47595C33.3293 7.17121 32.916 7 32.485 7H8.45119L6.92374 3.75M11.36 29.75C9.55619 29.75 8.10999 31.1963 8.10999 33C8.10999 33.862 8.45238 34.6886 9.06188 35.2981C9.67138 35.9076 10.498 36.25 11.36 36.25C12.222 36.25 13.0486 35.9076 13.6581 35.2981C14.2676 34.6886 14.61 33.862 14.61 33C14.61 32.138 14.2676 31.3114 13.6581 30.7019C13.0486 30.0924 12.222 29.75 11.36 29.75Z" fill="black"/>
</svg>
