<svg width="39" height="40" viewBox="0 0 39 40" fill="none" xmlns="http://www.w3.org/2000/svg">
<path d="M19.5 7C21.2239 7 22.8772 7.68482 24.0962 8.90381C25.3152 10.1228 26 11.7761 26 13.5C26 15.2239 25.3152 16.8772 24.0962 18.0962C22.8772 19.3152 21.2239 20 19.5 20C17.7761 20 16.1228 19.3152 14.9038 18.0962C13.6848 16.8772 13 15.2239 13 13.5C13 11.7761 13.6848 10.1228 14.9038 8.90381C16.1228 7.68482 17.7761 7 19.5 7ZM19.5 10.25C18.6381 10.25 17.8114 10.5924 17.2019 11.2019C16.5924 11.8114 16.25 12.638 16.25 13.5C16.25 14.362 16.5924 15.1886 17.2019 15.7981C17.8114 16.4076 18.6381 16.75 19.5 16.75C20.362 16.75 21.1886 16.4076 21.7981 15.7981C22.4076 15.1886 22.75 14.362 22.75 13.5C22.75 12.638 22.4076 11.8114 21.7981 11.2019C21.1886 10.5924 20.362 10.25 19.5 10.25ZM19.5 21.625C23.8388 21.625 32.5 23.7863 32.5 28.125V33H6.5V28.125C6.5 23.7863 15.1613 21.625 19.5 21.625ZM19.5 24.7125C14.6738 24.7125 9.5875 27.085 9.5875 28.125V29.9125H29.4125V28.125C29.4125 27.085 24.3263 24.7125 19.5 24.7125Z" fill="black"/>
</svg>
