<svg width="20" height="20" viewBox="0 0 20 20" fill="none" xmlns="http://www.w3.org/2000/svg">
<path d="M18.2333 19.75L11.4083 12.925C10.8667 13.3583 10.2438 13.7014 9.53958 13.9542C8.83542 14.2069 8.08611 14.3333 7.29167 14.3333C5.32361 14.3333 3.65817 13.6516 2.29533 12.288C0.932501 10.9244 0.250723 9.259 0.250001 7.29167C0.249278 5.32433 0.931056 3.65889 2.29533 2.29533C3.65961 0.931778 5.32506 0.25 7.29167 0.25C9.25828 0.25 10.9241 0.931778 12.2891 2.29533C13.6541 3.65889 14.3355 5.32433 14.3333 7.29167C14.3333 8.08611 14.2069 8.83542 13.9542 9.53958C13.7014 10.2438 13.3583 10.8667 12.925 11.4083L19.75 18.2333L18.2333 19.75ZM7.29167 12.1667C8.64583 12.1667 9.79706 11.6929 10.7453 10.7453C11.6936 9.79778 12.1674 8.64656 12.1667 7.29167C12.1659 5.93678 11.6922 4.78592 10.7453 3.83908C9.7985 2.89225 8.64728 2.41811 7.29167 2.41667C5.93606 2.41522 4.7852 2.88936 3.83908 3.83908C2.89297 4.78881 2.41883 5.93967 2.41667 7.29167C2.4145 8.64367 2.88864 9.79489 3.83908 10.7453C4.78953 11.6958 5.94039 12.1696 7.29167 12.1667Z" fill="black"/>
</svg>
