<svg width="50" height="45" viewBox="0 0 50 45" fill="none" xmlns="http://www.w3.org/2000/svg">
<path d="M1 44L4.46398 33.5326C-1.72855 24.3079 0.664261 12.4046 10.0596 5.6894C19.455 -1.02314 32.9485 -0.472931 41.6218 6.97769C50.2951 14.431 51.4675 26.4792 44.3637 35.1618C37.2599 43.8443 24.0728 46.4746 13.5236 41.3161L1 44Z" stroke="black" stroke-width="2" stroke-linecap="round" stroke-linejoin="round"/>
<path d="M7.95881 27V18.2727H9.27557V25.8665H13.2301V27H7.95881ZM21.9734 22.6364C21.9734 23.5682 21.8029 24.3693 21.462 25.0398C21.1211 25.7074 20.6538 26.2216 20.06 26.5824C19.4691 26.9403 18.7972 27.1193 18.0444 27.1193C17.2887 27.1193 16.614 26.9403 16.0202 26.5824C15.4293 26.2216 14.9634 25.706 14.6225 25.0355C14.2816 24.3651 14.1112 23.5653 14.1112 22.6364C14.1112 21.7045 14.2816 20.9048 14.6225 20.2372C14.9634 19.5668 15.4293 19.0526 16.0202 18.6946C16.614 18.3338 17.2887 18.1534 18.0444 18.1534C18.7972 18.1534 19.4691 18.3338 20.06 18.6946C20.6538 19.0526 21.1211 19.5668 21.462 20.2372C21.8029 20.9048 21.9734 21.7045 21.9734 22.6364ZM20.6694 22.6364C20.6694 21.9261 20.5543 21.3281 20.3242 20.8423C20.0969 20.3537 19.7844 19.9844 19.3867 19.7344C18.9918 19.4815 18.5444 19.3551 18.0444 19.3551C17.5415 19.3551 17.0927 19.4815 16.6978 19.7344C16.3029 19.9844 15.9904 20.3537 15.7603 20.8423C15.533 21.3281 15.4194 21.9261 15.4194 22.6364C15.4194 23.3466 15.533 23.946 15.7603 24.4347C15.9904 24.9205 16.3029 25.2898 16.6978 25.5426C17.0927 25.7926 17.5415 25.9176 18.0444 25.9176C18.5444 25.9176 18.9918 25.7926 19.3867 25.5426C19.7844 25.2898 20.0969 24.9205 20.3242 24.4347C20.5543 23.946 20.6694 23.3466 20.6694 22.6364ZM29.5213 21.0298C29.4389 20.7713 29.3281 20.5398 29.1889 20.3352C29.0526 20.1278 28.8892 19.9517 28.6989 19.8068C28.5085 19.6591 28.2912 19.5469 28.0469 19.4702C27.8054 19.3935 27.5398 19.3551 27.25 19.3551C26.7585 19.3551 26.3153 19.4815 25.9205 19.7344C25.5256 19.9872 25.2131 20.358 24.983 20.8466C24.7557 21.3324 24.642 21.9276 24.642 22.6321C24.642 23.3395 24.7571 23.9375 24.9872 24.4261C25.2173 24.9148 25.5327 25.2855 25.9332 25.5384C26.3338 25.7912 26.7898 25.9176 27.3011 25.9176C27.7756 25.9176 28.1889 25.821 28.5412 25.6278C28.8963 25.4347 29.1705 25.1619 29.3636 24.8097C29.5597 24.4545 29.6577 24.0369 29.6577 23.5568L29.9986 23.6207H27.5014V22.5341H30.9318V23.527C30.9318 24.2599 30.7756 24.8963 30.4631 25.4361C30.1534 25.973 29.7244 26.3878 29.1761 26.6804C28.6307 26.973 28.0057 27.1193 27.3011 27.1193C26.5114 27.1193 25.8182 26.9375 25.2216 26.5739C24.6278 26.2102 24.1648 25.6946 23.8324 25.027C23.5 24.3565 23.3338 23.5611 23.3338 22.6406C23.3338 21.9446 23.4304 21.3196 23.6236 20.7656C23.8168 20.2116 24.0881 19.7415 24.4375 19.3551C24.7898 18.9659 25.2031 18.669 25.6776 18.4645C26.1548 18.2571 26.6761 18.1534 27.2415 18.1534C27.7131 18.1534 28.152 18.223 28.5582 18.3622C28.9673 18.5014 29.331 18.6989 29.6491 18.9545C29.9702 19.2102 30.2358 19.5142 30.446 19.8665C30.6563 20.2159 30.7983 20.6037 30.8722 21.0298H29.5213ZM33.9201 18.2727V27H32.6033V18.2727H33.9201ZM42.8817 18.2727V27H41.6715L37.2354 20.5994H37.1545V27H35.8377V18.2727H37.0565L41.4968 24.6818H41.5778V18.2727H42.8817Z" fill="black"/>
</svg>
