<svg width="51" height="51" viewBox="0 0 51 51" fill="none" xmlns="http://www.w3.org/2000/svg">
<path d="M25.5 0.166656C28.8152 0.166656 31.9946 1.48362 34.3388 3.82782C36.683 6.17203 38 9.35145 38 12.6667C38 15.9819 36.683 19.1613 34.3388 21.5055C31.9946 23.8497 28.8152 25.1667 25.5 25.1667C22.1848 25.1667 19.0054 23.8497 16.6612 21.5055C14.317 19.1613 13 15.9819 13 12.6667C13 9.35145 14.317 6.17203 16.6612 3.82782C19.0054 1.48362 22.1848 0.166656 25.5 0.166656ZM25.5 6.41666C23.8424 6.41666 22.2527 7.07514 21.0806 8.24724C19.9085 9.41934 19.25 11.0091 19.25 12.6667C19.25 14.3243 19.9085 15.914 21.0806 17.0861C22.2527 18.2582 23.8424 18.9167 25.5 18.9167C27.1576 18.9167 28.7473 18.2582 29.9194 17.0861C31.0915 15.914 31.75 14.3243 31.75 12.6667C31.75 11.0091 31.0915 9.41934 29.9194 8.24724C28.7473 7.07514 27.1576 6.41666 25.5 6.41666ZM25.5 28.2917C33.8438 28.2917 50.5 32.4479 50.5 40.7917V50.1667H0.5V40.7917C0.5 32.4479 17.1562 28.2917 25.5 28.2917ZM25.5 34.2292C16.2187 34.2292 6.4375 38.7917 6.4375 40.7917V44.2292H44.5625V40.7917C44.5625 38.7917 34.7813 34.2292 25.5 34.2292Z" fill="black"/>
</svg>
