<svg width="17" height="13" viewBox="0 0 17 13" fill="none" xmlns="http://www.w3.org/2000/svg">
<path d="M16.1381 0.426593C16.4392 0.711196 16.6149 1.10371 16.6266 1.51782C16.6383 1.93193 16.4851 2.33375 16.2006 2.63493L7.34644 12.0099C7.20294 12.1616 7.0305 12.283 6.8393 12.3669C6.6481 12.4508 6.44202 12.4955 6.23325 12.4984C6.02447 12.5013 5.81723 12.4624 5.62376 12.3838C5.4303 12.3053 5.25453 12.1888 5.10686 12.0412L0.419358 7.35368C0.143358 7.05748 -0.00689869 6.66572 0.000243431 6.26092C0.00738555 5.85613 0.171369 5.46991 0.457646 5.18363C0.743923 4.89735 1.13014 4.73337 1.53494 4.72623C1.93973 4.71909 2.33149 4.86934 2.62769 5.14534L6.17977 8.69534L13.9298 0.489093C14.2144 0.188046 14.6069 0.0123464 15.021 0.000626132C15.4351 -0.0110941 15.8369 0.142124 16.1381 0.426593Z" fill="black"/>
</svg>
